<svg xmlns="http://www.w3.org/2000/svg"  viewBox="0 0 64 64" width="64px" height="64px"><polygon fill="#85cbf8" points="61.698,32 35.536,58.163 35.536,51.092 32,44.728 44.728,32 29.879,17.151 28.464,5.837 32,2.302"/><polygon fill="#7bbeeb" points="2.302,32 28.464,5.837 28.464,12.908 32,19.272 19.272,32 34.121,46.849 35.536,58.163 32,61.698"/><path fill="#8d6c9f" d="M32,63c-0.256,0-0.512-0.098-0.707-0.293l-30-30c-0.391-0.391-0.391-1.023,0-1.414l30-30 c0.391-0.391,1.023-0.391,1.414,0l30,30c0.391,0.391,0.391,1.023,0,1.414l-30,30C32.512,62.902,32.256,63,32,63z M3.414,32 L32,60.586L60.586,32L32,3.414L3.414,32z"/><path fill="#8d6c9f" d="M32,45.728L32,45.728c-0.266,0-0.52-0.105-0.707-0.293l-1.414-1.415 c-0.391-0.391-0.391-1.024,0-1.414c0.391-0.391,1.023-0.391,1.414,0L32,43.313L43.313,32L32,20.686L20.687,32l2.121,2.122 c0.391,0.391,0.391,1.024,0,1.414c-0.391,0.391-1.023,0.391-1.414,0l-2.828-2.829c-0.391-0.391-0.391-1.023,0-1.414l12.728-12.728 c0.375-0.375,1.039-0.375,1.414,0l12.728,12.728c0.391,0.391,0.391,1.023,0,1.414L32.707,45.435 C32.52,45.623,32.266,45.728,32,45.728z"/><path fill="#ace3ff" d="M60.284,32l-0.336,0.336c-1.376,1.376-3.608,1.376-4.984,0L32,9.373 c-1.562-1.562-1.562-4.095,0-5.657l0,0L60.284,32z"/><path fill="#8d6c9f" d="M27.758,41.485c-0.256,0-0.512-0.098-0.707-0.293l-2.829-2.829c-0.391-0.39-0.391-1.023,0-1.414 s1.023-0.391,1.414,0l2.829,2.829c0.391,0.39,0.391,1.023,0,1.414C28.27,41.388,28.014,41.485,27.758,41.485z"/><path fill="#8d6c9f" d="M31.293,19.979c-2.455-2.455-3.808-5.72-3.808-9.192c0-3.473,1.353-6.737,3.808-9.192l1.414,1.414 c-2.078,2.078-3.222,4.84-3.222,7.778c0,2.938,1.144,5.7,3.222,7.778L31.293,19.979z"/><path fill="#8d6c9f" d="M32.707,62.405l-1.414-1.414c2.078-2.078,3.222-4.84,3.222-7.778c0-2.938-1.144-5.7-3.222-7.778 l1.414-1.414c2.455,2.455,3.808,5.72,3.808,9.192C36.515,56.686,35.162,59.95,32.707,62.405z"/><path fill="#8d6c9f" d="M41.899,16.444c-0.39-0.39-1.024-0.39-1.414,0l-1.414,1.414c-0.39,0.39-0.39,1.024,0,1.414 c0.39,0.39,1.024,0.39,1.414,0l1.414-1.414C42.29,17.468,42.29,16.834,41.899,16.444z M38.364,12.908 c-0.39-0.39-1.024-0.39-1.414,0l-1.414,1.414c-0.39,0.39-0.39,1.024,0,1.414c0.39,0.39,1.024,0.39,1.414,0l1.414-1.414 C38.754,13.932,38.754,13.298,38.364,12.908z M45.435,19.979c-0.39-0.39-1.024-0.39-1.414,0l-1.414,1.414 c-0.39,0.39-0.39,1.024,0,1.414c0.39,0.39,1.024,0.39,1.414,0l1.414-1.414C45.825,21.003,45.825,20.37,45.435,19.979z M34.828,9.373c-0.39-0.39-1.024-0.39-1.414,0L32,10.787c-0.39,0.39-0.39,1.024,0,1.414c0.39,0.39,1.024,0.39,1.414,0l1.414-1.414 C35.219,10.396,35.219,9.763,34.828,9.373z M48.971,23.515c-0.39-0.39-1.024-0.39-1.414,0l-1.414,1.414 c-0.39,0.39-0.39,1.024,0,1.414c0.39,0.39,1.024,0.39,1.414,0l1.414-1.414C49.361,24.539,49.361,23.905,48.971,23.515z M52.506,27.05c-0.39-0.39-1.024-0.39-1.414,0l-1.414,1.414c-0.39,0.39-0.39,1.024,0,1.414c0.39,0.39,1.024,0.39,1.414,0 l1.414-1.414C52.896,28.074,52.896,27.441,52.506,27.05z M56.042,30.586c-0.39-0.39-1.024-0.39-1.414,0L53.213,32 c-0.39,0.39-0.39,1.024,0,1.414s1.024,0.39,1.414,0L56.042,32C56.432,31.61,56.432,30.976,56.042,30.586z"/></svg>